<svg width="1747" height="519" viewBox="0 0 1747 519" fill="none" xmlns="http://www.w3.org/2000/svg">
<path d="M1095.76 481.477C1095.76 480.484 1095.48 479.603 1094.92 478.834C1094.39 478.065 1093.53 477.28 1092.35 476.479C1091.17 475.678 1089.62 474.813 1087.68 473.884C1085.58 472.922 1083.71 471.945 1082.08 470.952C1080.49 469.927 1079.12 468.805 1078 467.588C1076.88 466.338 1076.04 464.929 1075.48 463.359C1074.92 461.757 1074.64 459.915 1074.64 457.832C1074.64 455.685 1074.99 453.683 1075.69 451.825C1076.39 449.966 1077.4 448.332 1078.72 446.923C1080.06 445.513 1081.69 444.408 1083.6 443.607C1085.51 442.806 1087.65 442.405 1090.04 442.405C1093.38 442.405 1096.24 443.094 1098.62 444.472C1101.04 445.817 1102.87 447.708 1104.14 450.143C1105.43 452.578 1106.07 455.381 1106.07 458.553H1095.3C1095.3 457.335 1095.12 456.23 1094.75 455.237C1094.39 454.244 1093.81 453.459 1093.03 452.882C1092.24 452.273 1091.23 451.969 1090 451.969C1088.96 451.969 1088.06 452.209 1087.3 452.69C1086.57 453.17 1086.01 453.811 1085.62 454.612C1085.23 455.381 1085.03 456.262 1085.03 457.255C1085.03 458.024 1085.16 458.697 1085.41 459.274C1085.69 459.85 1086.12 460.411 1086.71 460.956C1087.3 461.468 1088.09 462.013 1089.07 462.59C1090.08 463.134 1091.33 463.775 1092.82 464.512C1095.85 465.826 1098.36 467.219 1100.35 468.693C1102.34 470.135 1103.83 471.833 1104.81 473.787C1105.79 475.71 1106.28 478.113 1106.28 480.996C1106.28 483.271 1105.9 485.354 1105.15 487.244C1104.39 489.134 1103.29 490.768 1101.86 492.146C1100.46 493.491 1098.76 494.533 1096.77 495.27C1094.78 495.975 1092.55 496.327 1090.08 496.327C1086.46 496.327 1083.4 495.51 1080.91 493.876C1078.44 492.242 1076.56 490.127 1075.27 487.532C1074 484.937 1073.37 482.23 1073.37 479.41H1083.73C1083.78 481.269 1084.1 482.742 1084.69 483.832C1085.31 484.889 1086.11 485.626 1087.09 486.042C1088.07 486.459 1089.13 486.667 1090.25 486.667C1091.48 486.667 1092.51 486.475 1093.32 486.09C1094.13 485.674 1094.74 485.081 1095.13 484.312C1095.55 483.511 1095.76 482.566 1095.76 481.477Z" fill="#8D5139"/>
<path d="M1112.93 471.288V467.492C1112.93 463.423 1113.37 459.834 1114.23 456.727C1115.1 453.587 1116.34 450.96 1117.94 448.845C1119.54 446.73 1121.44 445.129 1123.66 444.039C1125.91 442.95 1128.39 442.405 1131.11 442.405C1133.89 442.405 1136.38 442.95 1138.6 444.039C1140.84 445.129 1142.77 446.73 1144.37 448.845C1145.99 450.96 1147.23 453.587 1148.07 456.727C1148.94 459.834 1149.37 463.423 1149.37 467.492V471.288C1149.37 475.357 1148.94 478.946 1148.07 482.054C1147.23 485.161 1145.99 487.789 1144.37 489.935C1142.77 492.05 1140.84 493.652 1138.6 494.741C1136.38 495.798 1133.92 496.327 1131.19 496.327C1128.47 496.327 1125.99 495.798 1123.75 494.741C1121.53 493.652 1119.61 492.05 1117.98 489.935C1116.35 487.789 1115.1 485.161 1114.23 482.054C1113.37 478.946 1112.93 475.357 1112.93 471.288ZM1123.75 467.492V471.288C1123.75 473.82 1123.91 476.014 1124.25 477.872C1124.59 479.699 1125.08 481.221 1125.72 482.438C1126.4 483.655 1127.18 484.569 1128.08 485.177C1129.01 485.754 1130.04 486.042 1131.19 486.042C1132.43 486.042 1133.51 485.754 1134.43 485.177C1135.36 484.569 1136.13 483.655 1136.75 482.438C1137.37 481.221 1137.83 479.699 1138.14 477.872C1138.45 476.014 1138.6 473.82 1138.6 471.288V467.492C1138.6 465.025 1138.42 462.862 1138.05 461.004C1137.72 459.146 1137.23 457.608 1136.58 456.39C1135.93 455.173 1135.15 454.26 1134.22 453.651C1133.3 453.01 1132.26 452.69 1131.11 452.69C1129.99 452.69 1128.98 453.01 1128.08 453.651C1127.18 454.26 1126.4 455.173 1125.72 456.39C1125.08 457.608 1124.59 459.146 1124.25 461.004C1123.91 462.862 1123.75 465.025 1123.75 467.492Z" fill="#8D5139"/>
<path d="M1171.05 495.366H1160.27V438.609C1160.27 434.7 1160.85 431.416 1162 428.757C1163.18 426.065 1164.83 424.031 1166.96 422.653C1169.12 421.243 1171.68 420.539 1174.62 420.539C1175.55 420.539 1176.43 420.619 1177.27 420.779C1178.14 420.939 1178.98 421.163 1179.8 421.452L1179.63 431.4C1179.27 431.24 1178.8 431.127 1178.24 431.063C1177.71 430.999 1177.16 430.967 1176.6 430.967C1175.42 430.967 1174.41 431.272 1173.57 431.88C1172.76 432.457 1172.13 433.322 1171.68 434.476C1171.26 435.597 1171.05 436.975 1171.05 438.609V495.366ZM1178.33 443.366V452.738H1154.63V443.366H1178.33Z" fill="#8D5139"/>
<path d="M1204.5 443.366V452.738H1181.73V443.366H1204.5ZM1187.46 430.583H1198.19V480.179C1198.19 481.717 1198.33 482.887 1198.61 483.688C1198.89 484.489 1199.3 485.033 1199.83 485.322C1200.39 485.61 1201.06 485.754 1201.85 485.754C1202.44 485.754 1203 485.706 1203.53 485.61C1204.07 485.514 1204.46 485.418 1204.71 485.322L1204.67 495.125C1203.85 495.478 1202.96 495.766 1201.98 495.991C1200.99 496.215 1199.81 496.327 1198.44 496.327C1196.25 496.327 1194.33 495.83 1192.68 494.837C1191.05 493.844 1189.77 492.242 1188.85 490.031C1187.92 487.821 1187.46 484.905 1187.46 481.285V430.583Z" fill="#8D5139"/>
<path d="M1222.01 482.678L1230.46 443.366H1237.24L1235.77 457.303L1227.39 495.366H1221.54L1222.01 482.678ZM1219.02 443.366L1225.12 482.726L1225.16 495.366H1218.47L1208.58 443.366H1219.02ZM1243.85 482.198L1249.74 443.366H1260.22L1250.33 495.366H1243.68L1243.85 482.198ZM1238.29 443.366L1246.67 482.294L1247.26 495.366H1241.41L1232.99 457.351L1231.52 443.366H1238.29Z" fill="#8D5139"/>
<path d="M1287.19 484.12V459.13C1287.19 457.432 1286.99 456.086 1286.6 455.093C1286.24 454.099 1285.69 453.379 1284.96 452.93C1284.23 452.449 1283.33 452.209 1282.27 452.209C1281.12 452.209 1280.15 452.482 1279.36 453.026C1278.58 453.539 1277.99 454.292 1277.6 455.285C1277.23 456.246 1277.05 457.383 1277.05 458.697H1266.23C1266.23 456.518 1266.61 454.452 1267.37 452.498C1268.13 450.543 1269.22 448.813 1270.65 447.307C1272.08 445.769 1273.81 444.568 1275.83 443.703C1277.85 442.838 1280.11 442.405 1282.6 442.405C1285.58 442.405 1288.21 442.982 1290.52 444.135C1292.84 445.257 1294.67 447.067 1295.99 449.566C1297.33 452.033 1298.01 455.269 1298.01 459.274V483.015C1298.01 485.674 1298.13 487.933 1298.38 489.791C1298.66 491.649 1299.07 493.235 1299.6 494.549V495.366H1288.66C1288.19 494.02 1287.82 492.322 1287.57 490.272C1287.32 488.189 1287.19 486.139 1287.19 484.12ZM1288.58 463.647L1288.62 471.336H1284.08C1282.81 471.336 1281.69 471.545 1280.71 471.961C1279.76 472.378 1278.94 472.97 1278.27 473.739C1277.6 474.508 1277.09 475.421 1276.75 476.479C1276.42 477.536 1276.25 478.689 1276.25 479.939C1276.25 481.381 1276.43 482.582 1276.8 483.543C1277.16 484.472 1277.69 485.177 1278.4 485.658C1279.1 486.106 1279.95 486.331 1280.96 486.331C1282.39 486.331 1283.63 485.978 1284.67 485.273C1285.73 484.569 1286.53 483.736 1287.06 482.774C1287.63 481.781 1287.84 480.852 1287.7 479.987L1290.14 484.985C1289.86 486.171 1289.42 487.42 1288.83 488.734C1288.24 490.047 1287.49 491.281 1286.56 492.434C1285.66 493.588 1284.55 494.533 1283.23 495.27C1281.94 495.975 1280.42 496.327 1278.65 496.327C1276.15 496.327 1273.89 495.702 1271.87 494.453C1269.88 493.203 1268.31 491.441 1267.16 489.166C1266.01 486.859 1265.43 484.104 1265.43 480.9C1265.43 478.273 1265.81 475.902 1266.57 473.787C1267.33 471.673 1268.44 469.863 1269.89 468.357C1271.38 466.851 1273.26 465.698 1275.53 464.897C1277.81 464.064 1280.47 463.647 1283.53 463.647H1288.58Z" fill="#8D5139"/>
<path d="M1318.2 454.18V495.366H1307.43V443.366H1317.66L1318.2 454.18ZM1329.06 442.982L1328.98 455.237C1328.42 455.109 1327.79 455.013 1327.08 454.949C1326.41 454.884 1325.78 454.852 1325.19 454.852C1323.87 454.852 1322.74 455.109 1321.78 455.621C1320.83 456.134 1320.03 456.871 1319.38 457.832C1318.74 458.793 1318.25 459.979 1317.91 461.388C1317.57 462.766 1317.36 464.336 1317.28 466.098L1315.09 465.666C1315.09 462.334 1315.32 459.258 1315.76 456.438C1316.24 453.619 1316.93 451.168 1317.83 449.085C1318.75 446.971 1319.89 445.337 1321.23 444.183C1322.58 442.998 1324.12 442.405 1325.86 442.405C1326.4 442.405 1326.97 442.469 1327.59 442.597C1328.23 442.694 1328.73 442.822 1329.06 442.982Z" fill="#8D5139"/>
<path d="M1352.46 496.327C1349.43 496.327 1346.74 495.798 1344.38 494.741C1342.05 493.684 1340.07 492.146 1338.45 490.127C1336.82 488.109 1335.57 485.626 1334.7 482.678C1333.86 479.731 1333.44 476.351 1333.44 472.538V467.876C1333.44 463.551 1333.87 459.802 1334.74 456.631C1335.61 453.427 1336.82 450.783 1338.36 448.701C1339.93 446.586 1341.81 445.016 1344 443.991C1346.22 442.934 1348.66 442.405 1351.32 442.405C1354.18 442.405 1356.68 442.95 1358.81 444.039C1360.97 445.097 1362.76 446.682 1364.16 448.797C1365.56 450.912 1366.6 453.539 1367.27 456.679C1367.97 459.786 1368.32 463.391 1368.32 467.492V473.403H1338.28V464.416H1357.72V463.215C1357.66 460.972 1357.42 459.066 1357 457.496C1356.58 455.926 1355.91 454.74 1354.98 453.939C1354.09 453.106 1352.85 452.69 1351.28 452.69C1350.05 452.69 1348.98 452.978 1348.08 453.555C1347.18 454.099 1346.46 454.965 1345.89 456.15C1345.36 457.303 1344.95 458.857 1344.67 460.812C1344.39 462.734 1344.25 465.089 1344.25 467.876V472.538C1344.25 475.005 1344.45 477.104 1344.84 478.834C1345.24 480.532 1345.81 481.925 1346.57 483.015C1347.33 484.072 1348.25 484.841 1349.35 485.322C1350.44 485.802 1351.72 486.042 1353.17 486.042C1355.36 486.042 1357.28 485.594 1358.94 484.697C1360.6 483.768 1362.03 482.534 1363.23 480.996L1367.73 488.541C1366.92 489.791 1365.81 491.024 1364.41 492.242C1363.01 493.427 1361.31 494.405 1359.32 495.174C1357.35 495.942 1355.07 496.327 1352.46 496.327Z" fill="#8D5139"/>
<path d="M1411.84 486.042C1413.01 486.042 1414.05 485.77 1414.95 485.225C1415.85 484.649 1416.55 483.752 1417.05 482.534C1417.56 481.317 1417.83 479.731 1417.85 477.776H1428.04C1428.01 481.557 1427.27 484.841 1425.81 487.628C1424.38 490.416 1422.46 492.562 1420.04 494.068C1417.66 495.574 1414.98 496.327 1412 496.327C1408.97 496.327 1406.32 495.782 1404.05 494.693C1401.81 493.572 1399.96 491.954 1398.5 489.839C1397.04 487.692 1395.94 485.081 1395.21 482.005C1394.48 478.93 1394.12 475.421 1394.12 471.481V467.252C1394.12 463.311 1394.48 459.802 1395.21 456.727C1395.94 453.651 1397.04 451.056 1398.5 448.941C1399.96 446.795 1401.81 445.177 1404.05 444.087C1406.3 442.966 1408.93 442.405 1411.96 442.405C1415.19 442.405 1417.99 443.174 1420.38 444.712C1422.76 446.25 1424.63 448.509 1425.98 451.488C1427.32 454.436 1428.01 458.072 1428.04 462.398H1417.85C1417.83 460.283 1417.59 458.521 1417.14 457.111C1416.69 455.669 1416.02 454.58 1415.12 453.843C1414.25 453.074 1413.14 452.69 1411.79 452.69C1410.34 452.69 1409.14 453.026 1408.22 453.699C1407.32 454.34 1406.63 455.285 1406.16 456.534C1405.68 457.784 1405.34 459.306 1405.15 461.1C1404.98 462.894 1404.89 464.945 1404.89 467.252V471.481C1404.89 473.852 1404.98 475.95 1405.15 477.776C1405.31 479.571 1405.64 481.092 1406.11 482.342C1406.59 483.559 1407.28 484.489 1408.18 485.129C1409.1 485.738 1410.32 486.042 1411.84 486.042Z" fill="#8D5139"/>
<path d="M1433.85 471.288V467.492C1433.85 463.423 1434.28 459.834 1435.15 456.727C1436.02 453.587 1437.25 450.96 1438.85 448.845C1440.45 446.73 1442.36 445.129 1444.58 444.039C1446.82 442.95 1449.3 442.405 1452.02 442.405C1454.8 442.405 1457.3 442.95 1459.52 444.039C1461.76 445.129 1463.68 446.73 1465.28 448.845C1466.91 450.96 1468.14 453.587 1468.98 456.727C1469.85 459.834 1470.29 463.423 1470.29 467.492V471.288C1470.29 475.357 1469.85 478.946 1468.98 482.054C1468.14 485.161 1466.91 487.789 1465.28 489.935C1463.68 492.05 1461.76 493.652 1459.52 494.741C1457.3 495.798 1454.83 496.327 1452.11 496.327C1449.39 496.327 1446.9 495.798 1444.66 494.741C1442.44 493.652 1440.52 492.05 1438.9 489.935C1437.27 487.789 1436.02 485.161 1435.15 482.054C1434.28 478.946 1433.85 475.357 1433.85 471.288ZM1444.66 467.492V471.288C1444.66 473.82 1444.83 476.014 1445.17 477.872C1445.5 479.699 1445.99 481.221 1446.64 482.438C1447.31 483.655 1448.1 484.569 1448.99 485.177C1449.92 485.754 1450.96 486.042 1452.11 486.042C1453.34 486.042 1454.42 485.754 1455.35 485.177C1456.27 484.569 1457.05 483.655 1457.66 482.438C1458.28 481.221 1458.74 479.699 1459.05 477.872C1459.36 476.014 1459.52 473.82 1459.52 471.288V467.492C1459.52 465.025 1459.33 462.862 1458.97 461.004C1458.63 459.146 1458.14 457.608 1457.5 456.39C1456.85 455.173 1456.06 454.26 1455.14 453.651C1454.21 453.01 1453.17 452.69 1452.02 452.69C1450.9 452.69 1449.89 453.01 1448.99 453.651C1448.1 454.26 1447.31 455.173 1446.64 456.39C1445.99 457.608 1445.5 459.146 1445.17 461.004C1444.83 462.862 1444.66 465.025 1444.66 467.492Z" fill="#8D5139"/>
<path d="M1488.89 454.468V495.366H1478.07V443.366H1488.21L1488.89 454.468ZM1487.12 467.54L1484.01 467.588C1483.95 463.775 1484.27 460.331 1484.97 457.255C1485.7 454.148 1486.74 451.488 1488.09 449.278C1489.46 447.067 1491.09 445.369 1492.97 444.183C1494.85 442.998 1496.94 442.405 1499.24 442.405C1501.04 442.405 1502.66 442.758 1504.12 443.463C1505.61 444.167 1506.88 445.289 1507.95 446.827C1509.02 448.364 1509.84 450.383 1510.43 452.882C1511.02 455.381 1511.32 458.441 1511.32 462.061V495.366H1500.5V461.965C1500.5 459.626 1500.28 457.8 1499.83 456.486C1499.41 455.141 1498.78 454.196 1497.94 453.651C1497.12 453.074 1496.07 452.786 1494.78 452.786C1493.57 452.786 1492.49 453.17 1491.54 453.939C1490.59 454.708 1489.77 455.766 1489.1 457.111C1488.45 458.457 1487.96 460.027 1487.63 461.821C1487.29 463.583 1487.12 465.489 1487.12 467.54Z" fill="#8D5139"/>
<path d="M1541.15 481.477C1541.15 480.484 1540.87 479.603 1540.31 478.834C1539.78 478.065 1538.92 477.28 1537.74 476.479C1536.57 475.678 1535.01 474.813 1533.07 473.884C1530.97 472.922 1529.1 471.945 1527.48 470.952C1525.88 469.927 1524.52 468.805 1523.4 467.588C1522.27 466.338 1521.43 464.929 1520.87 463.359C1520.31 461.757 1520.03 459.915 1520.03 457.832C1520.03 455.685 1520.38 453.683 1521.08 451.825C1521.78 449.966 1522.79 448.332 1524.11 446.923C1525.46 445.513 1527.08 444.408 1528.99 443.607C1530.9 442.806 1533.05 442.405 1535.43 442.405C1538.77 442.405 1541.63 443.094 1544.02 444.472C1546.43 445.817 1548.27 447.708 1549.53 450.143C1550.82 452.578 1551.46 455.381 1551.46 458.553H1540.69C1540.69 457.335 1540.51 456.23 1540.14 455.237C1539.78 454.244 1539.2 453.459 1538.42 452.882C1537.63 452.273 1536.62 451.969 1535.39 451.969C1534.35 451.969 1533.45 452.209 1532.7 452.69C1531.97 453.17 1531.4 453.811 1531.01 454.612C1530.62 455.381 1530.42 456.262 1530.42 457.255C1530.42 458.024 1530.55 458.697 1530.8 459.274C1531.08 459.85 1531.52 460.411 1532.11 460.956C1532.7 461.468 1533.48 462.013 1534.46 462.59C1535.47 463.134 1536.72 463.775 1538.21 464.512C1541.24 465.826 1543.75 467.219 1545.74 468.693C1547.73 470.135 1549.22 471.833 1550.2 473.787C1551.18 475.71 1551.67 478.113 1551.67 480.996C1551.67 483.271 1551.3 485.354 1550.54 487.244C1549.78 489.134 1548.69 490.768 1547.26 492.146C1545.85 493.491 1544.16 494.533 1542.16 495.27C1540.17 495.975 1537.94 496.327 1535.47 496.327C1531.85 496.327 1528.8 495.51 1526.3 493.876C1523.83 492.242 1521.95 490.127 1520.66 487.532C1519.4 484.937 1518.77 482.23 1518.77 479.41H1529.12C1529.17 481.269 1529.5 482.742 1530.09 483.832C1530.7 484.889 1531.5 485.626 1532.48 486.042C1533.47 486.459 1534.52 486.667 1535.64 486.667C1536.88 486.667 1537.9 486.475 1538.71 486.09C1539.53 485.674 1540.13 485.081 1540.52 484.312C1540.94 483.511 1541.15 482.566 1541.15 481.477Z" fill="#8D5139"/>
<path d="M1581.97 482.967V443.366H1592.79V495.366H1582.65L1581.97 482.967ZM1583.36 472.202L1586.52 472.105C1586.52 475.566 1586.24 478.786 1585.68 481.765C1585.11 484.713 1584.25 487.276 1583.07 489.455C1581.89 491.633 1580.39 493.331 1578.56 494.549C1576.77 495.734 1574.64 496.327 1572.17 496.327C1570.29 496.327 1568.58 495.975 1567.03 495.27C1565.49 494.533 1564.16 493.395 1563.04 491.857C1561.91 490.288 1561.04 488.285 1560.43 485.85C1559.81 483.383 1559.5 480.42 1559.5 476.959V443.366H1570.32V477.104C1570.32 478.705 1570.44 480.083 1570.69 481.237C1570.95 482.358 1571.28 483.271 1571.7 483.976C1572.15 484.649 1572.67 485.129 1573.26 485.418C1573.85 485.706 1574.5 485.85 1575.2 485.85C1577.25 485.85 1578.86 485.257 1580.04 484.072C1581.24 482.887 1582.1 481.269 1582.6 479.218C1583.11 477.136 1583.36 474.797 1583.36 472.202Z" fill="#8D5139"/>
<path d="M1613.37 421.548V495.366H1602.55V421.548H1613.37Z" fill="#8D5139"/>
<path d="M1642.4 443.366V452.738H1619.64V443.366H1642.4ZM1625.36 430.583H1636.09V480.179C1636.09 481.717 1636.23 482.887 1636.51 483.688C1636.79 484.489 1637.2 485.033 1637.73 485.322C1638.29 485.61 1638.97 485.754 1639.75 485.754C1640.34 485.754 1640.9 485.706 1641.43 485.61C1641.97 485.514 1642.36 485.418 1642.61 485.322L1642.57 495.125C1641.76 495.478 1640.86 495.766 1639.88 495.991C1638.9 496.215 1637.72 496.327 1636.34 496.327C1634.15 496.327 1632.23 495.83 1630.58 494.837C1628.95 493.844 1627.67 492.242 1626.75 490.031C1625.82 487.821 1625.36 484.905 1625.36 481.285V430.583Z" fill="#8D5139"/>
<path d="M1660.92 443.366V495.366H1650.1V443.366H1660.92ZM1649.56 429.862C1649.56 427.908 1650.09 426.29 1651.15 425.008C1652.22 423.726 1653.68 423.086 1655.53 423.086C1657.38 423.086 1658.83 423.726 1659.87 425.008C1660.9 426.258 1661.42 427.859 1661.42 429.814C1661.42 431.736 1660.9 433.338 1659.87 434.62C1658.83 435.869 1657.38 436.494 1655.53 436.494C1653.68 436.494 1652.22 435.869 1651.15 434.62C1650.09 433.338 1649.56 431.752 1649.56 429.862Z" fill="#8D5139"/>
<path d="M1681.45 454.468V495.366H1670.64V443.366H1680.78L1681.45 454.468ZM1679.69 467.54L1676.57 467.588C1676.52 463.775 1676.84 460.331 1677.54 457.255C1678.27 454.148 1679.31 451.488 1680.65 449.278C1682.03 447.067 1683.66 445.369 1685.54 444.183C1687.42 442.998 1689.51 442.405 1691.81 442.405C1693.6 442.405 1695.23 442.758 1696.69 443.463C1698.17 444.167 1699.45 445.289 1700.52 446.827C1701.58 448.364 1702.41 450.383 1703 452.882C1703.59 455.381 1703.88 458.441 1703.88 462.061V495.366H1693.07V461.965C1693.07 459.626 1692.84 457.8 1692.4 456.486C1691.97 455.141 1691.34 454.196 1690.5 453.651C1689.69 453.074 1688.64 452.786 1687.35 452.786C1686.14 452.786 1685.06 453.17 1684.1 453.939C1683.15 454.708 1682.34 455.766 1681.66 457.111C1681.02 458.457 1680.53 460.027 1680.19 461.821C1679.85 463.583 1679.69 465.489 1679.69 467.54Z" fill="#8D5139"/>
<path d="M1737.17 443.366H1746.97V495.462C1746.97 500.172 1746.2 504.032 1744.66 507.044C1743.12 510.056 1740.97 512.266 1738.22 513.676C1735.5 515.118 1732.32 515.839 1728.67 515.839C1727.29 515.839 1725.72 515.614 1723.96 515.166C1722.19 514.717 1720.46 514.029 1718.78 513.099C1717.13 512.17 1715.75 511.049 1714.66 509.735L1718.44 501.181C1719.65 502.559 1721.14 503.68 1722.9 504.545C1724.7 505.41 1726.44 505.843 1728.12 505.843C1729.83 505.843 1731.28 505.522 1732.46 504.881C1733.66 504.241 1734.57 503.167 1735.19 501.661C1735.81 500.188 1736.12 498.169 1736.12 495.606V455.285L1737.17 443.366ZM1711.63 471.336V467.588C1711.63 463.327 1711.96 459.626 1712.64 456.486C1713.34 453.315 1714.35 450.687 1715.67 448.605C1717.01 446.522 1718.64 444.968 1720.55 443.943C1722.46 442.918 1724.6 442.405 1726.99 442.405C1729.45 442.405 1731.53 443.014 1733.21 444.231C1734.9 445.417 1736.27 447.099 1737.34 449.278C1738.4 451.456 1739.23 454.051 1739.82 457.063C1740.41 460.043 1740.86 463.327 1741.17 466.915V472.298C1740.89 475.726 1740.4 478.914 1739.69 481.861C1739.02 484.809 1738.11 487.356 1736.96 489.503C1735.84 491.649 1734.45 493.331 1732.79 494.549C1731.17 495.734 1729.2 496.327 1726.9 496.327C1724.55 496.327 1722.41 495.798 1720.51 494.741C1718.63 493.652 1717.01 492.066 1715.67 489.983C1714.35 487.869 1713.34 485.257 1712.64 482.15C1711.96 479.01 1711.63 475.405 1711.63 471.336ZM1722.44 467.588V471.336C1722.44 473.868 1722.58 476.062 1722.86 477.921C1723.17 479.747 1723.62 481.253 1724.21 482.438C1724.83 483.591 1725.61 484.456 1726.57 485.033C1727.52 485.578 1728.66 485.85 1729.97 485.85C1731.77 485.85 1733.21 485.37 1734.31 484.408C1735.4 483.447 1736.23 482.134 1736.79 480.468C1737.35 478.77 1737.72 476.847 1737.89 474.701V464.56C1737.77 462.83 1737.53 461.244 1737.17 459.802C1736.83 458.361 1736.34 457.127 1735.7 456.102C1735.08 455.045 1734.29 454.228 1733.34 453.651C1732.41 453.074 1731.32 452.786 1730.06 452.786C1728.77 452.786 1727.63 453.09 1726.65 453.699C1725.7 454.276 1724.91 455.157 1724.29 456.342C1723.68 457.528 1723.21 459.066 1722.9 460.956C1722.6 462.814 1722.44 465.025 1722.44 467.588Z" fill="#8D5139"/>
<path d="M571.852 321.73L620.269 111.076H690.537L613.627 375.801H571.423L571.852 321.73ZM540.574 111.076L588.776 321.975L589.205 375.801H547.001L470.091 111.076H540.574Z" fill="#8D5139"/>
<path d="M834.503 312.678V199.155C834.503 191.162 833.431 184.312 831.289 178.603C829.147 172.894 825.79 168.409 821.22 165.147C816.65 161.885 810.723 160.253 803.439 160.253C797.297 160.253 791.941 161.477 787.371 163.923C782.944 166.37 779.516 169.877 777.088 174.444C774.803 179.011 773.66 184.638 773.66 191.326H706.819C706.819 179.419 709.176 168.327 713.889 158.052C718.602 147.776 725.315 138.723 734.027 130.894C742.882 123.065 753.451 117.03 765.733 112.789C778.016 108.385 791.799 106.183 807.081 106.183C825.219 106.183 841.358 109.69 855.498 116.704C869.78 123.554 881.063 133.912 889.346 147.776C897.63 161.477 901.772 178.766 901.772 199.644V310.476C901.772 326.46 902.558 339.02 904.129 348.154C905.843 357.125 908.271 364.954 911.413 371.641V375.801H843.929C840.787 368.134 838.43 358.674 836.859 347.42C835.288 336.002 834.503 324.422 834.503 312.678ZM842.858 214.324L843.286 256.406H810.08C802.653 256.406 796.226 257.466 790.799 259.586C785.514 261.707 781.23 264.643 777.945 268.394C774.66 271.982 772.232 276.223 770.661 281.116C769.233 285.847 768.519 291.066 768.519 296.775C768.519 302.157 769.661 307.051 771.946 311.454C774.231 315.695 777.374 319.039 781.373 321.486C785.372 323.932 790.013 325.156 795.298 325.156C804.01 325.156 811.437 323.198 817.578 319.284C823.862 315.369 828.718 310.639 832.146 305.093C835.574 299.384 837.288 294.083 837.288 289.19L853.355 320.996C850.784 327.521 847.642 334.29 843.929 341.303C840.216 348.154 835.502 354.597 829.789 360.632C824.077 366.503 817.15 371.315 809.009 375.067C801.011 378.818 791.37 380.694 780.087 380.694C765.519 380.694 752.308 377.35 740.454 370.663C728.6 363.812 719.102 354.433 711.961 342.527C704.962 330.62 701.463 316.919 701.463 301.423C701.463 287.559 703.677 275.245 708.105 264.479C712.532 253.714 719.173 244.58 728.028 237.077C737.026 229.574 748.309 223.947 761.877 220.196C775.445 216.281 791.299 214.324 809.437 214.324H842.858Z" fill="#8D5139"/>
<path d="M1016.17 0V375.801H949.118V0H1016.17Z" fill="#8D5139"/>
<path d="M1129.72 0V375.801H1062.88V0H1129.72ZM1120.93 234.141L1104.22 234.631C1104.22 216.036 1106.22 198.992 1110.22 183.496C1114.36 167.838 1120.22 154.218 1127.79 142.638C1135.36 131.057 1144.43 122.086 1155 115.725C1165.71 109.364 1177.49 106.183 1190.35 106.183C1201.77 106.183 1212.2 108.059 1221.62 111.81C1231.05 115.562 1239.19 121.515 1246.05 129.671C1252.9 137.826 1258.19 148.51 1261.9 161.721C1265.61 174.933 1267.47 190.999 1267.47 209.92V375.801H1200.2V209.431C1200.2 198.176 1198.77 189.368 1195.92 183.007C1193.2 176.646 1189.2 172.16 1183.92 169.551C1178.78 166.941 1172.49 165.636 1165.07 165.636C1156.35 165.636 1149.14 167.43 1143.43 171.019C1137.72 174.444 1133.22 179.256 1129.93 185.454C1126.65 191.652 1124.29 198.91 1122.86 207.229C1121.58 215.547 1120.93 224.518 1120.93 234.141Z" fill="#8D5139"/>
<path d="M1301.53 246.13V240.992C1301.53 221.582 1303.96 203.722 1308.82 187.411C1313.67 170.937 1320.81 156.665 1330.24 144.595C1339.67 132.525 1351.23 123.146 1364.95 116.459C1378.66 109.608 1394.37 106.183 1412.08 106.183C1430.07 106.183 1445.93 109.608 1459.64 116.459C1473.49 123.146 1485.13 132.525 1494.56 144.595C1503.98 156.665 1511.12 170.937 1515.98 187.411C1520.84 203.722 1523.26 221.582 1523.26 240.992V246.13C1523.26 265.377 1520.84 283.237 1515.98 299.711C1511.12 316.022 1503.98 330.293 1494.56 342.527C1485.13 354.597 1473.56 363.975 1459.85 370.663C1446.14 377.35 1430.36 380.694 1412.51 380.694C1394.8 380.694 1379.01 377.35 1365.16 370.663C1351.31 363.975 1339.67 354.597 1330.24 342.527C1320.81 330.293 1313.67 316.022 1308.82 299.711C1303.96 283.237 1301.53 265.377 1301.53 246.13ZM1368.59 240.992V246.13C1368.59 256.569 1369.3 266.355 1370.73 275.489C1372.3 284.623 1374.8 292.616 1378.23 299.466C1381.66 306.317 1386.16 311.699 1391.73 315.614C1397.44 319.365 1404.37 321.241 1412.51 321.241C1420.65 321.241 1427.5 319.365 1433.07 315.614C1438.64 311.699 1443.14 306.317 1446.57 299.466C1450 292.616 1452.42 284.623 1453.85 275.489C1455.42 266.355 1456.21 256.569 1456.21 246.13V240.992C1456.21 230.716 1455.42 221.093 1453.85 212.122C1452.42 202.988 1450 194.914 1446.57 187.9C1443.14 180.887 1438.57 175.423 1432.86 171.508C1427.29 167.593 1420.36 165.636 1412.08 165.636C1404.08 165.636 1397.3 167.593 1391.73 171.508C1386.16 175.423 1381.66 180.887 1378.23 187.9C1374.8 194.914 1372.3 202.988 1370.73 212.122C1369.3 221.093 1368.59 230.716 1368.59 240.992Z" fill="#8D5139"/>
<path d="M1681.8 302.157C1681.8 297.264 1680.44 292.942 1677.73 289.19C1675.16 285.439 1670.44 282.014 1663.59 278.914C1656.88 275.815 1647.38 272.716 1635.1 269.617C1623.53 266.844 1612.74 263.256 1602.75 258.852C1592.75 254.285 1584.04 248.821 1576.61 242.46C1569.18 235.936 1563.4 228.269 1559.26 219.462C1555.11 210.491 1553.04 200.296 1553.04 188.879C1553.04 177.788 1555.11 167.267 1559.26 157.318C1563.54 147.368 1569.68 138.56 1577.68 130.894C1585.82 123.228 1595.68 117.193 1607.24 112.789C1618.96 108.385 1632.24 106.183 1647.09 106.183C1667.52 106.183 1685.15 109.853 1700.01 117.193C1714.86 124.37 1726.29 134.482 1734.29 147.531C1742.28 160.417 1746.28 175.178 1746.28 191.815H1679.44C1679.44 184.964 1678.3 179.011 1676.01 173.955C1673.73 168.898 1670.23 164.984 1665.52 162.211C1660.8 159.275 1654.59 157.807 1646.88 157.807C1640.88 157.807 1635.59 159.03 1631.02 161.477C1626.6 163.76 1623.1 166.941 1620.53 171.019C1618.1 175.096 1616.89 179.826 1616.89 185.209C1616.89 188.96 1617.6 192.386 1619.03 195.485C1620.6 198.421 1622.96 201.194 1626.1 203.803C1629.38 206.25 1633.6 208.452 1638.74 210.409C1644.02 212.366 1650.45 214.242 1658.02 216.036C1674.16 219.462 1688.87 224.273 1702.15 230.471C1715.58 236.67 1726.29 245.233 1734.29 256.161C1742.43 267.089 1746.5 281.524 1746.5 299.466C1746.5 311.21 1744.14 321.975 1739.43 331.761C1734.86 341.548 1728.22 350.111 1719.5 357.451C1710.79 364.791 1700.36 370.5 1688.23 374.577C1676.09 378.655 1662.37 380.694 1647.09 380.694C1625.24 380.694 1606.74 376.208 1591.61 367.237C1576.47 358.266 1565.04 347.012 1557.33 333.474C1549.76 319.773 1545.97 305.746 1545.97 291.392H1608.74C1609.03 300.2 1610.96 307.377 1614.53 312.922C1618.24 318.468 1623.03 322.546 1628.88 325.156C1634.74 327.602 1641.31 328.825 1648.59 328.825C1655.88 328.825 1661.95 327.684 1666.8 325.4C1671.66 323.117 1675.37 320.018 1677.94 316.103C1680.51 312.025 1681.8 307.377 1681.8 302.157Z" fill="#8D5139"/>
<path d="M401.828 215.36C399.606 212.335 396.429 210.455 393.004 210.144C374.66 208.477 341.841 205.479 328.379 204.146C325.062 203.818 322.105 207.169 321.82 210.998C320.63 227.021 308.377 239.411 294.501 238.037L266.2 235.234C265.731 235.188 265.289 235.209 264.863 235.268L302.851 191.401C305.957 187.815 306.108 181.986 303.004 178.402L276.503 147.8C263.511 132.798 263.3 108.712 276.296 93.7062C278.696 90.9338 279.093 86.9804 277.724 83.6677L207.694 2.36288C206.394 0.853518 204.626 0.00203099 202.781 3.64226e-06C200.937 -0.00202371 199.167 0.842368 197.862 2.34869L127.846 83.1994C126.476 86.5111 126.874 90.4654 129.274 93.2378C142.27 108.243 142.059 132.33 129.067 147.332L102.566 177.932C99.4611 181.518 99.613 187.346 102.719 190.934L140.706 234.801C140.281 234.742 139.839 234.721 139.369 234.767L111.069 237.57C97.1928 238.945 84.939 226.554 83.7496 210.531C83.4651 206.702 80.5095 203.35 77.1912 203.679C61.3067 205.252 18.4717 209.142 4.26656 210.43C3.03671 210.541 1.8964 211.214 1.09844 212.301C0.300486 213.388 -0.0883966 214.797 0.016944 216.216L6.58932 304.716C7.58391 307.25 9.76358 308.913 12.326 308.66C26.2046 307.285 38.1941 319.185 39.3845 335.207L41.8117 367.889C42.0961 371.718 45.0966 374.463 48.4139 374.134L94.2845 369.593C101.619 368.867 108.91 371.579 114.542 377.056C120.174 382.532 123.693 390.388 124.322 398.861C124.458 400.699 125.207 402.189 126.429 403.377C127.651 404.566 129.218 404.932 130.81 404.774L187.586 394.102L188.118 502.067C188.118 511.421 194.685 519.005 202.785 519.005C210.886 519.005 217.453 511.421 217.453 502.067L217.984 394.571L274.761 405.243C276.353 405.401 277.92 405.034 279.141 403.846C280.363 402.658 281.112 401.169 281.248 399.331C281.878 390.858 285.397 383.002 291.028 377.526C296.661 372.048 303.951 369.337 311.286 370.062L357.157 374.604C360.473 374.932 363.475 372.187 363.759 368.359L366.186 335.677C367.377 319.655 379.366 307.755 393.245 309.13C395.809 309.385 397.987 307.72 398.981 305.186L404.842 226.269C405.135 222.311 404.05 218.386 401.828 215.36ZM149.361 295.33C149.29 294.767 149.23 294.2 149.188 293.629L145.254 240.659C145.236 240.402 145.185 240.17 145.148 239.927L145.671 240.529C152.539 248.46 156.363 259.261 156.363 270.479C156.363 279.456 153.875 288.148 149.361 295.33ZM260.315 241.129L256.382 294.1C256.34 294.67 256.28 295.237 256.209 295.801C251.695 288.62 249.207 279.927 249.207 270.95C249.207 259.732 253.032 248.932 259.9 241.001L260.422 240.398C260.386 240.639 260.335 240.873 260.315 241.129Z" fill="#8D5139"/>
</svg>
