<svg width="223" height="58" viewBox="0 0 223 58" fill="none" xmlns="http://www.w3.org/2000/svg">
<path d="M139.857 53.8105C139.857 53.6995 139.822 53.6011 139.75 53.5151C139.682 53.4292 139.573 53.3415 139.422 53.252C139.272 53.1624 139.073 53.0658 138.826 52.9619C138.558 52.8545 138.319 52.7453 138.112 52.6343C137.908 52.5197 137.734 52.3944 137.591 52.2583C137.448 52.1187 137.34 51.9611 137.269 51.7856C137.197 51.6066 137.161 51.4007 137.161 51.168C137.161 50.9281 137.206 50.7043 137.295 50.4966C137.385 50.2889 137.514 50.1063 137.682 49.9487C137.854 49.7912 138.062 49.6676 138.305 49.5781C138.549 49.4886 138.823 49.4438 139.127 49.4438C139.553 49.4438 139.918 49.5208 140.223 49.6748C140.531 49.8252 140.765 50.0365 140.926 50.3086C141.091 50.5807 141.173 50.894 141.173 51.2485H139.798C139.798 51.1125 139.775 50.9889 139.729 50.8779C139.682 50.7669 139.609 50.6792 139.508 50.6147C139.408 50.5467 139.279 50.5127 139.122 50.5127C138.989 50.5127 138.875 50.5396 138.778 50.5933C138.685 50.647 138.613 50.7186 138.563 50.8081C138.513 50.894 138.488 50.9925 138.488 51.1035C138.488 51.1895 138.504 51.2646 138.536 51.3291C138.572 51.3936 138.627 51.4562 138.703 51.5171C138.778 51.5744 138.878 51.6353 139.003 51.6997C139.132 51.7606 139.292 51.8322 139.481 51.9146C139.868 52.0614 140.189 52.2171 140.443 52.3818C140.697 52.543 140.887 52.7327 141.012 52.9512C141.138 53.166 141.2 53.4346 141.2 53.7568C141.2 54.0111 141.152 54.2438 141.055 54.4551C140.958 54.6663 140.819 54.849 140.636 55.0029C140.457 55.1533 140.241 55.2697 139.986 55.3521C139.732 55.4308 139.447 55.4702 139.132 55.4702C138.67 55.4702 138.28 55.3789 137.961 55.1963C137.646 55.0137 137.406 54.7773 137.242 54.4873C137.081 54.1973 137 53.8947 137 53.5796H138.321C138.328 53.7873 138.37 53.952 138.445 54.0737C138.524 54.1919 138.626 54.2743 138.751 54.3208C138.876 54.3674 139.011 54.3906 139.154 54.3906C139.311 54.3906 139.442 54.3691 139.546 54.3262C139.65 54.2796 139.727 54.2134 139.777 54.1274C139.831 54.0379 139.857 53.9323 139.857 53.8105Z" fill="#8D5139"/>
<path d="M142.049 52.6719V52.2476C142.049 51.7928 142.104 51.3918 142.215 51.0444C142.326 50.6935 142.484 50.3999 142.688 50.1636C142.892 49.9272 143.136 49.7482 143.418 49.6265C143.705 49.5047 144.022 49.4438 144.369 49.4438C144.724 49.4438 145.042 49.5047 145.325 49.6265C145.612 49.7482 145.857 49.9272 146.061 50.1636C146.269 50.3999 146.426 50.6935 146.534 51.0444C146.645 51.3918 146.7 51.7928 146.7 52.2476V52.6719C146.7 53.1266 146.645 53.5277 146.534 53.875C146.426 54.2223 146.269 54.516 146.061 54.7559C145.857 54.9922 145.612 55.1712 145.325 55.293C145.042 55.4111 144.727 55.4702 144.38 55.4702C144.033 55.4702 143.716 55.4111 143.429 55.293C143.146 55.1712 142.901 54.9922 142.693 54.7559C142.486 54.516 142.326 54.2223 142.215 53.875C142.104 53.5277 142.049 53.1266 142.049 52.6719ZM143.429 52.2476V52.6719C143.429 52.9548 143.451 53.2 143.494 53.4077C143.537 53.6118 143.599 53.7819 143.682 53.918C143.768 54.054 143.868 54.1561 143.982 54.2241C144.101 54.2886 144.233 54.3208 144.38 54.3208C144.537 54.3208 144.675 54.2886 144.793 54.2241C144.912 54.1561 145.01 54.054 145.089 53.918C145.168 53.7819 145.227 53.6118 145.266 53.4077C145.306 53.2 145.325 52.9548 145.325 52.6719V52.2476C145.325 51.9718 145.302 51.7301 145.255 51.5225C145.212 51.3148 145.15 51.1429 145.067 51.0068C144.985 50.8708 144.885 50.7687 144.767 50.7007C144.648 50.6291 144.516 50.5933 144.369 50.5933C144.226 50.5933 144.097 50.6291 143.982 50.7007C143.868 50.7687 143.768 50.8708 143.682 51.0068C143.599 51.1429 143.537 51.3148 143.494 51.5225C143.451 51.7301 143.429 51.9718 143.429 52.2476Z" fill="#8D5139"/>
<path d="M149.466 55.3628H148.091V49.0195C148.091 48.5827 148.165 48.2157 148.312 47.9185C148.462 47.6177 148.673 47.3903 148.945 47.2363C149.221 47.0788 149.547 47 149.923 47C150.041 47 150.154 47.009 150.261 47.0269C150.372 47.0448 150.48 47.0698 150.583 47.1021L150.562 48.2139C150.515 48.196 150.456 48.1834 150.385 48.1763C150.317 48.1691 150.247 48.1655 150.175 48.1655C150.025 48.1655 149.896 48.1995 149.789 48.2676C149.685 48.332 149.604 48.4287 149.547 48.5576C149.493 48.6829 149.466 48.8369 149.466 49.0195V55.3628ZM150.396 49.5513V50.5986H147.372V49.5513H150.396Z" fill="#8D5139"/>
<path d="M153.736 49.5513V50.5986H150.831V49.5513H153.736ZM151.561 48.1226H152.931V53.6655C152.931 53.8374 152.949 53.9681 152.984 54.0576C153.02 54.1471 153.072 54.208 153.14 54.2402C153.212 54.2725 153.298 54.2886 153.398 54.2886C153.473 54.2886 153.545 54.2832 153.613 54.2725C153.681 54.2617 153.731 54.251 153.763 54.2402L153.758 55.3359C153.654 55.3753 153.539 55.4076 153.414 55.4326C153.289 55.4577 153.138 55.4702 152.963 55.4702C152.684 55.4702 152.438 55.4147 152.227 55.3037C152.019 55.1927 151.856 55.0137 151.738 54.7666C151.62 54.5195 151.561 54.1937 151.561 53.7891V48.1226Z" fill="#8D5139"/>
<path d="M155.971 53.9448L157.05 49.5513H157.915L157.727 51.1089L156.658 55.3628H155.912L155.971 53.9448ZM155.589 49.5513L156.368 53.9502L156.374 55.3628H155.52L154.257 49.5513H155.589ZM158.758 53.8911L159.51 49.5513H160.848L159.585 55.3628H158.737L158.758 53.8911ZM158.049 49.5513L159.118 53.9019L159.193 55.3628H158.447L157.373 51.1143L157.185 49.5513H158.049Z" fill="#8D5139"/>
<path d="M164.291 54.106V51.313C164.291 51.1232 164.265 50.9728 164.215 50.8618C164.169 50.7508 164.099 50.6702 164.006 50.6201C163.913 50.5664 163.798 50.5396 163.662 50.5396C163.515 50.5396 163.392 50.57 163.292 50.6309C163.191 50.6882 163.116 50.7723 163.066 50.8833C163.019 50.9907 162.996 51.1178 162.996 51.2646H161.616C161.616 51.0212 161.664 50.7902 161.761 50.5718C161.857 50.3534 161.997 50.16 162.18 49.9917C162.362 49.8198 162.583 49.6855 162.84 49.5889C163.098 49.4922 163.386 49.4438 163.705 49.4438C164.085 49.4438 164.421 49.5083 164.715 49.6372C165.012 49.7625 165.245 49.9648 165.413 50.2441C165.585 50.5199 165.671 50.8815 165.671 51.3291V53.9824C165.671 54.2796 165.687 54.5321 165.719 54.7397C165.755 54.9474 165.807 55.1247 165.875 55.2715V55.3628H164.479C164.418 55.2124 164.371 55.0226 164.339 54.7935C164.307 54.5607 164.291 54.3315 164.291 54.106ZM164.468 51.8179L164.473 52.6772H163.893C163.732 52.6772 163.589 52.7005 163.463 52.7471C163.342 52.7936 163.238 52.8599 163.152 52.9458C163.066 53.0317 163.001 53.1338 162.958 53.252C162.916 53.3701 162.894 53.499 162.894 53.6387C162.894 53.7998 162.917 53.9341 162.964 54.0415C163.01 54.1453 163.078 54.2241 163.168 54.2778C163.257 54.328 163.367 54.353 163.496 54.353C163.678 54.353 163.836 54.3136 163.968 54.2349C164.104 54.1561 164.206 54.063 164.274 53.9556C164.346 53.8446 164.373 53.7407 164.355 53.644L164.667 54.2026C164.631 54.3351 164.575 54.4748 164.5 54.6216C164.425 54.7684 164.328 54.9062 164.21 55.0352C164.095 55.1641 163.954 55.2697 163.786 55.3521C163.621 55.4308 163.426 55.4702 163.2 55.4702C162.882 55.4702 162.593 55.4004 162.335 55.2607C162.081 55.1211 161.881 54.9242 161.734 54.6699C161.587 54.4121 161.514 54.1042 161.514 53.7461C161.514 53.4525 161.562 53.1875 161.659 52.9512C161.755 52.7148 161.897 52.5125 162.083 52.3442C162.273 52.1759 162.513 52.047 162.803 51.9575C163.093 51.8644 163.433 51.8179 163.823 51.8179H164.468Z" fill="#8D5139"/>
<path d="M168.249 50.7598V55.3628H166.874V49.5513H168.179L168.249 50.7598ZM169.635 49.5083L169.624 50.8779C169.552 50.8636 169.472 50.8529 169.382 50.8457C169.296 50.8385 169.216 50.835 169.141 50.835C168.972 50.835 168.827 50.8636 168.706 50.9209C168.584 50.9782 168.482 51.0605 168.399 51.168C168.317 51.2754 168.254 51.4079 168.211 51.5654C168.168 51.7194 168.142 51.8949 168.131 52.0918L167.852 52.0435C167.852 51.6711 167.88 51.3273 167.938 51.0122C167.998 50.6971 168.086 50.4232 168.201 50.1904C168.319 49.9541 168.464 49.7715 168.636 49.6426C168.808 49.5101 169.005 49.4438 169.227 49.4438C169.295 49.4438 169.368 49.451 169.447 49.4653C169.529 49.4761 169.592 49.4904 169.635 49.5083Z" fill="#8D5139"/>
<path d="M172.621 55.4702C172.234 55.4702 171.891 55.4111 171.59 55.293C171.293 55.1748 171.04 55.0029 170.833 54.7773C170.625 54.5518 170.465 54.2743 170.354 53.9448C170.247 53.6154 170.193 53.2376 170.193 52.8115V52.2905C170.193 51.8071 170.249 51.3882 170.36 51.0337C170.471 50.6756 170.625 50.3802 170.822 50.1475C171.022 49.9111 171.262 49.7357 171.542 49.6211C171.824 49.5029 172.136 49.4438 172.476 49.4438C172.841 49.4438 173.16 49.5047 173.432 49.6265C173.708 49.7446 173.935 49.9219 174.114 50.1582C174.293 50.3945 174.426 50.6882 174.512 51.0391C174.601 51.3864 174.646 51.7892 174.646 52.2476V52.9082H170.811V51.9038H173.292V51.7695C173.285 51.5189 173.255 51.3058 173.201 51.1304C173.147 50.9549 173.062 50.8224 172.943 50.7329C172.829 50.6398 172.671 50.5933 172.471 50.5933C172.313 50.5933 172.177 50.6255 172.062 50.6899C171.948 50.7508 171.855 50.8475 171.783 50.98C171.715 51.1089 171.663 51.2826 171.627 51.501C171.592 51.7158 171.574 51.979 171.574 52.2905V52.8115C171.574 53.0872 171.599 53.3218 171.649 53.5151C171.699 53.7049 171.772 53.8607 171.869 53.9824C171.966 54.1006 172.084 54.1865 172.224 54.2402C172.363 54.2939 172.526 54.3208 172.712 54.3208C172.992 54.3208 173.237 54.2707 173.448 54.1704C173.66 54.0666 173.842 53.9287 173.996 53.7568L174.571 54.6001C174.467 54.7397 174.326 54.8776 174.146 55.0137C173.967 55.1462 173.751 55.2554 173.497 55.3413C173.246 55.4272 172.954 55.4702 172.621 55.4702Z" fill="#8D5139"/>
<path d="M180.2 54.3208C180.35 54.3208 180.483 54.2904 180.597 54.2295C180.712 54.165 180.801 54.0648 180.866 53.9287C180.93 53.7926 180.964 53.6154 180.968 53.397H182.268C182.264 53.8195 182.169 54.1865 181.983 54.498C181.8 54.8096 181.555 55.0495 181.247 55.2178C180.943 55.3861 180.601 55.4702 180.221 55.4702C179.834 55.4702 179.496 55.4093 179.206 55.2876C178.92 55.1623 178.683 54.9814 178.497 54.7451C178.311 54.5052 178.171 54.2134 178.078 53.8696C177.985 53.5259 177.938 53.1338 177.938 52.6934V52.2207C177.938 51.7803 177.985 51.3882 178.078 51.0444C178.171 50.7007 178.311 50.4106 178.497 50.1743C178.683 49.9344 178.92 49.7536 179.206 49.6318C179.493 49.5065 179.829 49.4438 180.216 49.4438C180.628 49.4438 180.986 49.5298 181.29 49.7017C181.594 49.8735 181.833 50.126 182.004 50.459C182.176 50.7884 182.264 51.1948 182.268 51.6782H180.968C180.964 51.4419 180.934 51.245 180.876 51.0874C180.819 50.9263 180.733 50.8045 180.619 50.7222C180.508 50.6362 180.366 50.5933 180.194 50.5933C180.008 50.5933 179.856 50.6309 179.738 50.7061C179.623 50.7777 179.535 50.8833 179.475 51.0229C179.414 51.1626 179.371 51.3327 179.346 51.5332C179.324 51.7337 179.313 51.9629 179.313 52.2207V52.6934C179.313 52.9583 179.324 53.1929 179.346 53.397C179.367 53.5975 179.408 53.7676 179.469 53.9072C179.53 54.0433 179.618 54.1471 179.732 54.2188C179.851 54.2868 180.006 54.3208 180.2 54.3208Z" fill="#8D5139"/>
<path d="M183.009 52.6719V52.2476C183.009 51.7928 183.064 51.3918 183.175 51.0444C183.286 50.6935 183.444 50.3999 183.648 50.1636C183.852 49.9272 184.096 49.7482 184.378 49.6265C184.665 49.5047 184.982 49.4438 185.329 49.4438C185.684 49.4438 186.002 49.5047 186.285 49.6265C186.572 49.7482 186.817 49.9272 187.021 50.1636C187.229 50.3999 187.386 50.6935 187.494 51.0444C187.605 51.3918 187.66 51.7928 187.66 52.2476V52.6719C187.66 53.1266 187.605 53.5277 187.494 53.875C187.386 54.2223 187.229 54.516 187.021 54.7559C186.817 54.9922 186.572 55.1712 186.285 55.293C186.002 55.4111 185.687 55.4702 185.34 55.4702C184.993 55.4702 184.676 55.4111 184.389 55.293C184.106 55.1712 183.861 54.9922 183.653 54.7559C183.446 54.516 183.286 54.2223 183.175 53.875C183.064 53.5277 183.009 53.1266 183.009 52.6719ZM184.389 52.2476V52.6719C184.389 52.9548 184.411 53.2 184.454 53.4077C184.497 53.6118 184.559 53.7819 184.642 53.918C184.728 54.054 184.828 54.1561 184.942 54.2241C185.061 54.2886 185.193 54.3208 185.34 54.3208C185.497 54.3208 185.635 54.2886 185.753 54.2241C185.872 54.1561 185.97 54.054 186.049 53.918C186.128 53.7819 186.187 53.6118 186.226 53.4077C186.265 53.2 186.285 52.9548 186.285 52.6719V52.2476C186.285 51.9718 186.262 51.7301 186.215 51.5225C186.172 51.3148 186.11 51.1429 186.027 51.0068C185.945 50.8708 185.845 50.7687 185.727 50.7007C185.608 50.6291 185.476 50.5933 185.329 50.5933C185.186 50.5933 185.057 50.6291 184.942 50.7007C184.828 50.7687 184.728 50.8708 184.642 51.0068C184.559 51.1429 184.497 51.3148 184.454 51.5225C184.411 51.7301 184.389 51.9718 184.389 52.2476Z" fill="#8D5139"/>
<path d="M190.034 50.792V55.3628H188.654V49.5513H189.948L190.034 50.792ZM189.809 52.2529L189.411 52.2583C189.404 51.8322 189.445 51.4473 189.535 51.1035C189.628 50.7562 189.76 50.459 189.932 50.2119C190.108 49.9648 190.315 49.7751 190.555 49.6426C190.795 49.5101 191.062 49.4438 191.355 49.4438C191.585 49.4438 191.792 49.4832 191.979 49.562C192.168 49.6408 192.331 49.7661 192.467 49.938C192.603 50.1099 192.709 50.3354 192.784 50.6147C192.859 50.894 192.897 51.236 192.897 51.6406V55.3628H191.517V51.6299C191.517 51.3685 191.488 51.1644 191.431 51.0176C191.377 50.8672 191.296 50.7616 191.189 50.7007C191.085 50.6362 190.951 50.604 190.786 50.604C190.632 50.604 190.494 50.647 190.373 50.7329C190.251 50.8188 190.147 50.937 190.061 51.0874C189.979 51.2378 189.916 51.4132 189.873 51.6138C189.83 51.8107 189.809 52.0238 189.809 52.2529Z" fill="#8D5139"/>
<path d="M196.705 53.8105C196.705 53.6995 196.669 53.6011 196.598 53.5151C196.53 53.4292 196.42 53.3415 196.27 53.252C196.12 53.1624 195.921 53.0658 195.674 52.9619C195.405 52.8545 195.167 52.7453 194.959 52.6343C194.755 52.5197 194.582 52.3944 194.438 52.2583C194.295 52.1187 194.188 51.9611 194.116 51.7856C194.045 51.6066 194.009 51.4007 194.009 51.168C194.009 50.9281 194.054 50.7043 194.143 50.4966C194.233 50.2889 194.361 50.1063 194.53 49.9487C194.702 49.7912 194.909 49.6676 195.153 49.5781C195.396 49.4886 195.67 49.4438 195.975 49.4438C196.401 49.4438 196.766 49.5208 197.07 49.6748C197.378 49.8252 197.613 50.0365 197.774 50.3086C197.939 50.5807 198.021 50.894 198.021 51.2485H196.646C196.646 51.1125 196.623 50.9889 196.576 50.8779C196.53 50.7669 196.456 50.6792 196.356 50.6147C196.256 50.5467 196.127 50.5127 195.969 50.5127C195.837 50.5127 195.722 50.5396 195.625 50.5933C195.532 50.647 195.461 50.7186 195.411 50.8081C195.361 50.894 195.335 50.9925 195.335 51.1035C195.335 51.1895 195.352 51.2646 195.384 51.3291C195.42 51.3936 195.475 51.4562 195.55 51.5171C195.625 51.5744 195.726 51.6353 195.851 51.6997C195.98 51.7606 196.139 51.8322 196.329 51.9146C196.716 52.0614 197.036 52.2171 197.291 52.3818C197.545 52.543 197.735 52.7327 197.86 52.9512C197.985 53.166 198.048 53.4346 198.048 53.7568C198.048 54.0111 198 54.2438 197.903 54.4551C197.806 54.6663 197.667 54.849 197.484 55.0029C197.305 55.1533 197.088 55.2697 196.834 55.3521C196.58 55.4308 196.295 55.4702 195.98 55.4702C195.518 55.4702 195.128 55.3789 194.809 55.1963C194.494 55.0137 194.254 54.7773 194.089 54.4873C193.928 54.1973 193.848 53.8947 193.848 53.5796H195.169C195.176 53.7873 195.217 53.952 195.292 54.0737C195.371 54.1919 195.473 54.2743 195.599 54.3208C195.724 54.3674 195.858 54.3906 196.001 54.3906C196.159 54.3906 196.29 54.3691 196.394 54.3262C196.497 54.2796 196.574 54.2134 196.625 54.1274C196.678 54.0379 196.705 53.9323 196.705 53.8105Z" fill="#8D5139"/>
<path d="M201.915 53.9771V49.5513H203.295V55.3628H202.001L201.915 53.9771ZM202.092 52.7739L202.495 52.7632C202.495 53.1499 202.459 53.5098 202.388 53.8428C202.316 54.1722 202.205 54.4587 202.055 54.7021C201.904 54.9456 201.713 55.1354 201.48 55.2715C201.251 55.404 200.979 55.4702 200.664 55.4702C200.424 55.4702 200.205 55.4308 200.008 55.3521C199.811 55.2697 199.641 55.1426 199.498 54.9707C199.355 54.7952 199.244 54.5715 199.165 54.2993C199.086 54.0236 199.047 53.6924 199.047 53.3057V49.5513H200.427V53.3218C200.427 53.5008 200.443 53.6548 200.476 53.7837C200.508 53.909 200.551 54.0111 200.604 54.0898C200.662 54.165 200.728 54.2188 200.803 54.251C200.878 54.2832 200.961 54.2993 201.05 54.2993C201.312 54.2993 201.518 54.2331 201.668 54.1006C201.822 53.9681 201.931 53.7873 201.996 53.5581C202.06 53.3254 202.092 53.064 202.092 52.7739Z" fill="#8D5139"/>
<path d="M205.922 47.1128V55.3628H204.542V47.1128H205.922Z" fill="#8D5139"/>
<path d="M209.628 49.5513V50.5986H206.722V49.5513H209.628ZM207.453 48.1226H208.822V53.6655C208.822 53.8374 208.84 53.9681 208.876 54.0576C208.912 54.1471 208.964 54.208 209.032 54.2402C209.103 54.2725 209.189 54.2886 209.29 54.2886C209.365 54.2886 209.436 54.2832 209.504 54.2725C209.572 54.2617 209.623 54.251 209.655 54.2402L209.649 55.3359C209.546 55.3753 209.431 55.4076 209.306 55.4326C209.18 55.4577 209.03 55.4702 208.854 55.4702C208.575 55.4702 208.33 55.4147 208.119 55.3037C207.911 55.1927 207.748 55.0137 207.63 54.7666C207.512 54.5195 207.453 54.1937 207.453 53.7891V48.1226Z" fill="#8D5139"/>
<path d="M211.991 49.5513V55.3628H210.611V49.5513H211.991ZM210.541 48.042C210.541 47.8236 210.609 47.6427 210.745 47.4995C210.881 47.3563 211.067 47.2847 211.304 47.2847C211.54 47.2847 211.724 47.3563 211.857 47.4995C211.989 47.6392 212.056 47.8182 212.056 48.0366C212.056 48.2515 211.989 48.4305 211.857 48.5737C211.724 48.7134 211.54 48.7832 211.304 48.7832C211.067 48.7832 210.881 48.7134 210.745 48.5737C210.609 48.4305 210.541 48.2533 210.541 48.042Z" fill="#8D5139"/>
<path d="M214.612 50.792V55.3628H213.232V49.5513H214.526L214.612 50.792ZM214.387 52.2529L213.989 52.2583C213.982 51.8322 214.023 51.4473 214.113 51.1035C214.206 50.7562 214.338 50.459 214.51 50.2119C214.686 49.9648 214.893 49.7751 215.133 49.6426C215.373 49.5101 215.64 49.4438 215.934 49.4438C216.163 49.4438 216.37 49.4832 216.557 49.562C216.746 49.6408 216.909 49.7661 217.045 49.938C217.181 50.1099 217.287 50.3354 217.362 50.6147C217.438 50.894 217.475 51.236 217.475 51.6406V55.3628H216.095V51.6299C216.095 51.3685 216.066 51.1644 216.009 51.0176C215.955 50.8672 215.875 50.7616 215.767 50.7007C215.663 50.6362 215.529 50.604 215.364 50.604C215.21 50.604 215.072 50.647 214.951 50.7329C214.829 50.8188 214.725 50.937 214.639 51.0874C214.557 51.2378 214.494 51.4132 214.451 51.6138C214.408 51.8107 214.387 52.0238 214.387 52.2529Z" fill="#8D5139"/>
<path d="M221.724 49.5513H222.975V55.3735C222.975 55.8999 222.877 56.3314 222.68 56.668C222.483 57.0046 222.209 57.2516 221.858 57.4092C221.511 57.5703 221.104 57.6509 220.639 57.6509C220.463 57.6509 220.263 57.6258 220.037 57.5757C219.812 57.5256 219.591 57.4486 219.376 57.3447C219.165 57.2409 218.99 57.1156 218.85 56.9688L219.333 56.0127C219.487 56.1667 219.677 56.292 219.903 56.3887C220.132 56.4854 220.354 56.5337 220.569 56.5337C220.787 56.5337 220.972 56.4979 221.122 56.4263C221.276 56.3547 221.392 56.2347 221.471 56.0664C221.55 55.9017 221.589 55.6761 221.589 55.3896V50.8833L221.724 49.5513ZM218.463 52.6772V52.2583C218.463 51.7821 218.506 51.3685 218.592 51.0176C218.682 50.6631 218.811 50.3695 218.979 50.1367C219.151 49.904 219.359 49.7303 219.602 49.6157C219.846 49.5011 220.119 49.4438 220.424 49.4438C220.739 49.4438 221.004 49.5119 221.219 49.6479C221.434 49.7804 221.609 49.9684 221.745 50.2119C221.881 50.4554 221.987 50.7454 222.062 51.082C222.137 51.415 222.194 51.7821 222.234 52.1831V52.7847C222.198 53.1678 222.135 53.5241 222.046 53.8535C221.96 54.1829 221.844 54.4676 221.697 54.7075C221.554 54.9474 221.376 55.1354 221.165 55.2715C220.957 55.404 220.707 55.4702 220.413 55.4702C220.112 55.4702 219.84 55.4111 219.597 55.293C219.357 55.1712 219.151 54.994 218.979 54.7612C218.811 54.5249 218.682 54.2331 218.592 53.8857C218.506 53.5348 218.463 53.132 218.463 52.6772ZM219.844 52.2583V52.6772C219.844 52.9601 219.862 53.2054 219.897 53.4131C219.937 53.6172 219.994 53.7855 220.069 53.918C220.148 54.0469 220.248 54.1436 220.37 54.208C220.492 54.2689 220.637 54.2993 220.805 54.2993C221.034 54.2993 221.219 54.2456 221.358 54.1382C221.498 54.0308 221.604 53.884 221.675 53.6978C221.747 53.508 221.793 53.2931 221.815 53.0532V51.9199C221.801 51.7266 221.77 51.5493 221.724 51.3882C221.681 51.2271 221.618 51.0892 221.536 50.9746C221.457 50.8564 221.357 50.7651 221.235 50.7007C221.117 50.6362 220.977 50.604 220.816 50.604C220.651 50.604 220.506 50.638 220.381 50.7061C220.259 50.7705 220.159 50.869 220.08 51.0015C220.001 51.134 219.942 51.3058 219.903 51.5171C219.863 51.7248 219.844 51.9718 219.844 52.2583Z" fill="#8D5139"/>
<path d="M72.9883 35.957L79.168 12.4141H88.1367L78.3203 42H72.9336L72.9883 35.957ZM68.9961 12.4141L75.1484 35.9844L75.2031 42H69.8164L60 12.4141H68.9961Z" fill="#8D5139"/>
<path d="M106.512 34.9453V22.2578C106.512 21.3646 106.375 20.599 106.102 19.9609C105.828 19.3229 105.4 18.8216 104.816 18.457C104.233 18.0924 103.477 17.9102 102.547 17.9102C101.763 17.9102 101.079 18.0469 100.496 18.3203C99.931 18.5938 99.4935 18.9857 99.1836 19.4961C98.8919 20.0065 98.7461 20.6354 98.7461 21.3828H90.2148C90.2148 20.0521 90.5156 18.8125 91.1172 17.6641C91.7188 16.5156 92.5755 15.5039 93.6875 14.6289C94.8177 13.7539 96.1667 13.0794 97.7344 12.6055C99.3021 12.1133 101.061 11.8672 103.012 11.8672C105.327 11.8672 107.387 12.2591 109.191 13.043C111.014 13.8086 112.454 14.9661 113.512 16.5156C114.569 18.0469 115.098 19.9792 115.098 22.3125V34.6992C115.098 36.4857 115.198 37.8893 115.398 38.9102C115.617 39.9128 115.927 40.7878 116.328 41.5352V42H107.715C107.314 41.1432 107.013 40.0859 106.812 38.8281C106.612 37.5521 106.512 36.2578 106.512 34.9453ZM107.578 23.9531L107.633 28.6562H103.395C102.447 28.6562 101.626 28.7747 100.934 29.0117C100.259 29.2487 99.7122 29.5768 99.293 29.9961C98.8737 30.3971 98.5638 30.8711 98.3633 31.418C98.181 31.9466 98.0898 32.5299 98.0898 33.168C98.0898 33.7695 98.2357 34.3164 98.5273 34.8086C98.819 35.2826 99.2201 35.6562 99.7305 35.9297C100.241 36.2031 100.833 36.3398 101.508 36.3398C102.62 36.3398 103.568 36.1211 104.352 35.6836C105.154 35.2461 105.773 34.7174 106.211 34.0977C106.648 33.4596 106.867 32.8672 106.867 32.3203L108.918 35.875C108.59 36.6042 108.189 37.3607 107.715 38.1445C107.241 38.9102 106.639 39.6302 105.91 40.3047C105.181 40.9609 104.297 41.4987 103.258 41.918C102.237 42.3372 101.007 42.5469 99.5664 42.5469C97.707 42.5469 96.0208 42.1732 94.5078 41.4258C92.9948 40.6602 91.7826 39.612 90.8711 38.2812C89.9779 36.9505 89.5312 35.4193 89.5312 33.6875C89.5312 32.138 89.8138 30.7617 90.3789 29.5586C90.944 28.3555 91.7917 27.3346 92.9219 26.4961C94.0703 25.6576 95.5104 25.0286 97.2422 24.6094C98.974 24.1719 100.997 23.9531 103.312 23.9531H107.578Z" fill="#8D5139"/>
<path d="M129.699 0V42H121.141V0H129.699Z" fill="#8D5139"/>
<path d="M144.191 0V42H135.66V0H144.191ZM143.07 26.168L140.938 26.2227C140.938 24.1445 141.193 22.2396 141.703 20.5078C142.232 18.7578 142.979 17.2357 143.945 15.9414C144.911 14.6471 146.069 13.6445 147.418 12.9336C148.785 12.2227 150.289 11.8672 151.93 11.8672C153.388 11.8672 154.719 12.0768 155.922 12.4961C157.125 12.9154 158.164 13.5807 159.039 14.4922C159.914 15.4036 160.589 16.5977 161.062 18.0742C161.536 19.5508 161.773 21.3464 161.773 23.4609V42H153.188V23.4062C153.188 22.1484 153.005 21.1641 152.641 20.4531C152.294 19.7422 151.784 19.2409 151.109 18.9492C150.453 18.6576 149.651 18.5117 148.703 18.5117C147.591 18.5117 146.671 18.7122 145.941 19.1133C145.212 19.4961 144.638 20.0339 144.219 20.7266C143.799 21.4193 143.499 22.2305 143.316 23.1602C143.152 24.0898 143.07 25.0924 143.07 26.168Z" fill="#8D5139"/>
<path d="M166.121 27.5078V26.9336C166.121 24.7643 166.431 22.7682 167.051 20.9453C167.671 19.1042 168.582 17.5091 169.785 16.1602C170.988 14.8112 172.465 13.763 174.215 13.0156C175.965 12.25 177.97 11.8672 180.23 11.8672C182.527 11.8672 184.551 12.25 186.301 13.0156C188.069 13.763 189.555 14.8112 190.758 16.1602C191.961 17.5091 192.872 19.1042 193.492 20.9453C194.112 22.7682 194.422 24.7643 194.422 26.9336V27.5078C194.422 29.6589 194.112 31.6549 193.492 33.4961C192.872 35.319 191.961 36.9141 190.758 38.2812C189.555 39.6302 188.078 40.6784 186.328 41.4258C184.578 42.1732 182.564 42.5469 180.285 42.5469C178.025 42.5469 176.01 42.1732 174.242 41.4258C172.474 40.6784 170.988 39.6302 169.785 38.2812C168.582 36.9141 167.671 35.319 167.051 33.4961C166.431 31.6549 166.121 29.6589 166.121 27.5078ZM174.68 26.9336V27.5078C174.68 28.6745 174.771 29.7682 174.953 30.7891C175.154 31.8099 175.473 32.7031 175.91 33.4688C176.348 34.2344 176.922 34.8359 177.633 35.2734C178.362 35.6927 179.246 35.9023 180.285 35.9023C181.324 35.9023 182.199 35.6927 182.91 35.2734C183.621 34.8359 184.195 34.2344 184.633 33.4688C185.07 32.7031 185.38 31.8099 185.562 30.7891C185.763 29.7682 185.863 28.6745 185.863 27.5078V26.9336C185.863 25.7852 185.763 24.7096 185.562 23.707C185.38 22.6862 185.07 21.7839 184.633 21C184.195 20.2161 183.612 19.6055 182.883 19.168C182.172 18.7305 181.288 18.5117 180.23 18.5117C179.21 18.5117 178.344 18.7305 177.633 19.168C176.922 19.6055 176.348 20.2161 175.91 21C175.473 21.7839 175.154 22.6862 174.953 23.707C174.771 24.7096 174.68 25.7852 174.68 26.9336Z" fill="#8D5139"/>
<path d="M214.656 33.7695C214.656 33.2227 214.483 32.7396 214.137 32.3203C213.809 31.901 213.207 31.5182 212.332 31.1719C211.475 30.8255 210.263 30.4792 208.695 30.1328C207.219 29.8229 205.842 29.4219 204.566 28.9297C203.29 28.4193 202.178 27.8086 201.23 27.0977C200.283 26.3685 199.544 25.5117 199.016 24.5273C198.487 23.5247 198.223 22.3854 198.223 21.1094C198.223 19.8698 198.487 18.694 199.016 17.582C199.562 16.4701 200.346 15.4857 201.367 14.6289C202.406 13.7721 203.664 13.0977 205.141 12.6055C206.635 12.1133 208.331 11.8672 210.227 11.8672C212.833 11.8672 215.085 12.2773 216.98 13.0977C218.876 13.8997 220.335 15.0299 221.355 16.4883C222.376 17.9284 222.887 19.5781 222.887 21.4375H214.355C214.355 20.6719 214.21 20.0065 213.918 19.4414C213.626 18.8763 213.18 18.4388 212.578 18.1289C211.977 17.8008 211.184 17.6367 210.199 17.6367C209.434 17.6367 208.759 17.7734 208.176 18.0469C207.611 18.3021 207.164 18.6576 206.836 19.1133C206.526 19.569 206.371 20.0977 206.371 20.6992C206.371 21.1185 206.462 21.5013 206.645 21.8477C206.845 22.1758 207.146 22.4857 207.547 22.7773C207.966 23.0508 208.504 23.2969 209.16 23.5156C209.835 23.7344 210.655 23.944 211.621 24.1445C213.681 24.5273 215.559 25.0651 217.254 25.7578C218.967 26.4505 220.335 27.4076 221.355 28.6289C222.395 29.8503 222.914 31.4635 222.914 33.4688C222.914 34.7812 222.613 35.9844 222.012 37.0781C221.428 38.1719 220.581 39.1289 219.469 39.9492C218.357 40.7695 217.026 41.4076 215.477 41.8633C213.927 42.319 212.177 42.5469 210.227 42.5469C207.438 42.5469 205.077 42.0456 203.145 41.043C201.212 40.0404 199.754 38.7826 198.77 37.2695C197.803 35.7383 197.32 34.1706 197.32 32.5664H205.332C205.368 33.5508 205.615 34.3529 206.07 34.9727C206.544 35.5924 207.155 36.0482 207.902 36.3398C208.65 36.6133 209.488 36.75 210.418 36.75C211.348 36.75 212.122 36.6224 212.742 36.3672C213.362 36.112 213.836 35.7656 214.164 35.3281C214.492 34.8724 214.656 34.3529 214.656 33.7695Z" fill="#8D5139"/>
<path d="M51.2873 24.069C51.0037 23.7308 50.5983 23.5208 50.1611 23.486C47.8197 23.2997 43.6309 22.9646 41.9126 22.8157C41.4893 22.7789 41.1118 23.1535 41.0755 23.5815C40.9236 25.3721 39.3597 26.7569 37.5886 26.6034L33.9765 26.2901C33.9165 26.2849 33.8602 26.2873 33.8058 26.2939L38.6544 21.3913C39.0508 20.9904 39.0701 20.339 38.6739 19.9384L35.2914 16.5183C33.6332 14.8416 33.6063 12.1498 35.265 10.4727C35.5714 10.1629 35.6221 9.72106 35.4473 9.35082L26.509 0.264079C26.3431 0.0953904 26.1175 0.000226987 25.8819 4.07065e-07C25.6465 -0.000226172 25.4207 0.0941442 25.2542 0.262493L16.3176 9.29848C16.1427 9.6686 16.1936 10.1105 16.4999 10.4204C18.1586 12.0974 18.1317 14.7894 16.4735 16.466L13.091 19.886C12.6947 20.2867 12.7141 20.9381 13.1105 21.339L17.9591 26.2416C17.9047 26.2351 17.8484 26.2327 17.7884 26.2379L14.1763 26.5512C12.4052 26.7048 10.8412 25.32 10.6894 23.5293C10.6531 23.1013 10.2758 22.7267 9.8523 22.7634C7.82488 22.9393 2.35764 23.3741 0.544562 23.5179C0.38759 23.5304 0.242046 23.6056 0.1402 23.7271C0.0383525 23.8485 -0.0112825 24.006 0.00216265 24.1646L0.841028 34.0555C0.967972 34.3387 1.24617 34.5246 1.57323 34.4963C3.34463 34.3427 4.87491 35.6726 5.02684 37.4632L5.33664 41.1158C5.37294 41.5437 5.7559 41.8505 6.17931 41.8138L12.034 41.3062C12.9701 41.2251 13.9007 41.5282 14.6196 42.1403C15.3384 42.7523 15.7875 43.6303 15.8679 44.5773C15.8852 44.7827 15.9808 44.9492 16.1368 45.082C16.2927 45.2149 16.4927 45.2557 16.6959 45.2381L23.9426 44.0454L24.0104 56.1117C24.0104 57.1572 24.8486 58.0047 25.8825 58.0047C26.9164 58.0047 27.7546 57.1572 27.7546 56.1117L27.8224 44.0978L35.0691 45.2905C35.2723 45.3082 35.4723 45.2672 35.6282 45.1344C35.7842 45.0016 35.8797 44.8352 35.8971 44.6298C35.9775 43.6828 36.4266 42.8048 37.1454 42.1928C37.8644 41.5806 38.7948 41.2776 39.731 41.3587L45.5857 41.8662C46.009 41.9029 46.3921 41.5962 46.4284 41.1684L46.7382 37.5158C46.8901 35.7251 48.4204 34.3951 50.1918 34.5488C50.519 34.5773 50.797 34.3913 50.924 34.108L51.672 25.2881C51.7094 24.8458 51.5709 24.4071 51.2873 24.069ZM19.0637 33.0065C19.0546 32.9435 19.047 32.8802 19.0416 32.8164L18.5395 26.8964C18.5372 26.8677 18.5307 26.8417 18.526 26.8146L18.5927 26.8818C19.4693 27.7682 19.9574 28.9753 19.9574 30.2291C19.9573 31.2324 19.6398 32.2039 19.0637 33.0065ZM33.2253 26.9489L32.7233 32.869C32.7179 32.9328 32.7103 32.9961 32.7012 33.0591C32.1251 32.2565 31.8076 31.2851 31.8076 30.2818C31.8076 29.028 32.2957 27.821 33.1723 26.9346L33.239 26.8672C33.2343 26.8942 33.2278 26.9203 33.2253 26.9489Z" fill="#8D5139"/>
</svg>
